<?xml version="1.0" encoding="UTF-8"?>
<svg xmlns="http://www.w3.org/2000/svg" width="1024" height="1024" viewBox="0 0 1024 1024">
  <defs>
    <linearGradient id="plate" x1="180" y1="80" x2="860" y2="960" gradientUnits="userSpaceOnUse">
      <stop offset="0" stop-color="#5AD698"/>
      <stop offset="0.48" stop-color="#3EBA7A"/>
      <stop offset="1" stop-color="#247A54"/>
    </linearGradient>
    <linearGradient id="sheen" x1="512" y1="80" x2="512" y2="520" gradientUnits="userSpaceOnUse">
      <stop offset="0" stop-color="#fff" stop-opacity="0.22"/>
      <stop offset="1" stop-color="#fff" stop-opacity="0"/>
    </linearGradient>
    <filter id="glyphShadow" x="-20%" y="-20%" width="140%" height="140%">
      <feDropShadow dx="0" dy="10" stdDeviation="14" flood-color="#145C3A" flood-opacity="0.28"/>
    </filter>
  </defs>
  <rect x="64" y="64" width="896" height="896" rx="208" fill="url(#plate)"/>
  <rect x="64" y="64" width="896" height="896" rx="208" fill="url(#sheen)"/>
  <rect x="66.5" y="66.5" width="891" height="891" rx="206" fill="none" stroke="#fff" stroke-opacity="0.18" stroke-width="3"/>
  <g transform="translate(512 536) scale(2.52) translate(-128 -128)" filter="url(#glyphShadow)">
    <path fill="#fff" d="M208,40H48A16,16,0,0,0,32,56v56c0,52.72,25.52,84.67,46.93,102.19,23.06,18.86,46,25.26,47,25.53a8,8,0,0,0,4.2,0c1-.27,23.91-6.67,47-25.53C198.48,196.67,224,164.72,224,112V56A16,16,0,0,0,208,40Z"/>
    <path fill="#1F704A" d="M173.68,109.66l-56,56a8,8,0,0,1-11.32,0l-24-24a8,8,0,0,1,11.32-11.32L112,148.69l50.34-50.35a8,8,0,0,1,11.32,11.32Z"/>
  </g>
</svg>